<?xml version="1.0" encoding="UTF-8"?><svg xmlns="http://www.w3.org/2000/svg" viewBox="0 0 455.09 485.21"><defs><style>.cls-1{fill:#231f20;}.cls-2{stroke-width:10px;}.cls-2,.cls-3{fill:#fff;}.cls-2,.cls-3,.cls-4{stroke:#231f20;stroke-miterlimit:10;}.cls-3{stroke-width:7px;}.cls-4{fill:none;stroke-width:4px;}</style></defs><g id="Layer_1"><rect class="cls-2" x="5" y="5" width="445.09" height="475.21" rx="123.4" ry="123.4"/></g><g id="Layer_2"><path class="cls-4" d="M450.08,163.71c-.19-67.99-55.36-123.05-123.39-123.05H128.4C60.36,40.66,5.19,95.72,5,163.71H450.08Z"/><rect class="cls-3" x="61.3" y="71.33" width="332.48" height="71.43" rx="35.72" ry="35.72"/><g><path class="cls-1" d="M221.08,329.69c0,17.51-5.5,31.95-16.5,43.31-11,11.36-25.33,17.04-42.97,17.04s-31.84-5.7-42.77-17.09c-10.94-11.39-16.41-25.81-16.41-43.26v-25.59c0-17.38,5.45-31.79,16.36-43.21,10.9-11.43,25.11-17.14,42.63-17.14s32,5.71,43.07,17.14c11.07,11.43,16.6,25.83,16.6,43.21v25.59Zm-28.42-25.78c0-11.07-2.77-20.15-8.3-27.25-5.54-7.1-13.18-10.64-22.95-10.64s-17.14,3.55-22.51,10.64c-5.37,7.1-8.06,16.18-8.06,27.25v25.78c0,11.26,2.7,20.44,8.11,27.54,5.4,7.1,12.95,10.64,22.66,10.64s17.38-3.55,22.85-10.64c5.47-7.1,8.2-16.28,8.2-27.54v-25.78Z"/><path class="cls-1" d="M274.15,336.43v51.56h-28.52V245.81h54.39c16.34,0,29.2,4.17,38.57,12.5,9.38,8.33,14.06,19.3,14.06,32.91s-4.69,24.54-14.06,32.81c-9.38,8.27-22.23,12.4-38.57,12.4h-25.88Zm0-21.97h25.88c7.94,0,13.96-2.16,18.07-6.49,4.1-4.33,6.15-9.85,6.15-16.55s-2.04-12.48-6.1-16.94c-4.07-4.46-10.11-6.69-18.12-6.69h-25.88v46.68Z"/></g></g></svg>