<svg xmlns="http://www.w3.org/2000/svg" viewBox="4.75 5.39 1018.88 162.47"><defs><style>.cls-1{fill:#fff;}</style></defs><path class="cls-1" d="M4.75,74.38c0-31.77,24.42-54.17,54.39-54.17s54.16,22.39,54.16,54.17-24.24,54.31-54.16,54.31S4.75,106.19,4.75,74.38Zm78.63,0c0-16.56-9.15-27.13-24.24-27.13s-24.35,10.57-24.35,27.13,9.04,27.09,24.35,27.09,24.24-10.76,24.24-27.09Z"></path><path class="cls-1" d="M180.47,42.39c20.03,0,35.87,16.23,35.87,43.1s-15.84,43.28-35.87,43.28c-11.82,0-20.19-5.41-24.56-12.78v51.87h-29.48V43.51h29.48v11.69c4.33-7.47,12.78-12.81,24.56-12.81Zm-9.37,25.74c-8.28,0-15.31,6.15-15.31,17.43s7.03,17.47,15.31,17.47,15.34-6.22,15.34-17.54-7.03-17.36-15.34-17.36Z"></path><path class="cls-1" d="M249.62,77.18h29.26c-.07-7.48-5.88-11.45-12.67-11.45-8.2,0-13.67,5.36-13.67,15.84v7.63c0,11.48,5.65,15.89,12.58,15.89,5.8,0,8.9-3.04,10.56-6.51h31.29c-3.85,17.15-19.53,30.19-40.58,30.19-24.96,0-42.74-16.46-42.74-43.21s17.6-43.17,42.74-43.17,42.49,16.12,42.49,42.14c0,2.28-.15,4.75-.49,7.02h-58.81l.04-14.37Z"></path><path class="cls-1" d="M320.83,43.51h29.48V127.65h-29.48V43.51Zm57.39,38.97c0-9.76-5.5-15.38-13.94-15.38s-13.97,5.62-13.97,15.38l-2.78-21.81c3.94-9.64,13.77-17.94,28.41-17.94,19.46,0,31.61,13.75,31.61,35.94v48.98h-29.33v-45.17Z"></path><path class="cls-1" d="M467.75,91.88h-14.54v35.77h-29.48V21.91h44.02c26.24,0,39.53,14.79,39.53,35.18,0,18.52-12.73,34.79-39.53,34.79Zm-2.87-23.35c8.88,0,12.47-4.5,12.47-11.45s-3.59-11.48-12.47-11.48h-11.68v22.93h11.68Z"></path><path class="cls-1" d="M516.76,20.7c0-8.56,6.75-15.31,17.25-15.31s17.1,6.75,17.1,15.31-6.75,15.08-17.1,15.08-17.25-6.63-17.25-15.08Zm2.36,22.82h29.48V127.65h-29.48V43.51Z"></path><path class="cls-1" d="M565.33,43.51h29.48V127.65h-29.48V43.51Zm57.39,38.97c0-9.76-5.5-15.38-13.94-15.38s-13.97,5.62-13.97,15.38l-2.78-21.81c3.94-9.64,13.77-17.94,28.41-17.94,19.46,0,31.61,13.75,31.61,35.94v48.98h-29.33v-45.17Z"></path><path class="cls-1" d="M711.88,21.91h29.48V127.65h-29.48V21.91Zm26.48,39.77h42.23v23.58h-42.23v-23.58Zm38.75-39.77h29.48V127.65h-29.48V21.91Z"></path><path class="cls-1" d="M859.52,88.64c0,9.76,5.5,15.38,13.94,15.38s13.97-5.62,13.97-15.38l2.71,21.81c-3.87,9.64-13.73,17.94-28.3,17.94-19.46,0-31.64-13.75-31.64-35.94V43.51h29.33v45.13Zm57.39,39.01h-29.48V43.51h29.48V127.65Z"></path><path class="cls-1" d="M987.76,42.39c20.07,0,35.87,16.23,35.87,43.1s-15.84,43.28-35.87,43.28c-11.82,0-20.19-5.23-24.56-12.78v11.66h-29.48V16.65h29.48V55.24c4.37-7.61,12.88-12.85,24.56-12.85Zm-9.37,25.74c-8.28,0-15.31,6.15-15.31,17.43s7.03,17.47,15.31,17.47,15.34-6.22,15.34-17.54-7.03-17.36-15.34-17.36Z"></path></svg>